<svg xmlns="http://www.w3.org/2000/svg" viewBox="0 0 100 100" width="32" height="32">
  <style>
    :root {
      --emblem-bg: #fbf5ea;
      --emblem-border: rgba(44, 36, 22, 0.15);
      --emblem-frame: rgba(196, 98, 58, 0.45);
      --emblem-j: #c4623a;
      --emblem-s: #d4a843;
      --emblem-bindu: #2c2416;
    }
    @media (prefers-color-scheme: dark) {
      :root {
        --emblem-bg: #15111e;
        --emblem-border: rgba(255, 255, 255, 0.14);
        --emblem-frame: rgba(232, 196, 98, 0.4);
        --emblem-j: #e07a4f;
        --emblem-s: #e8c462;
        --emblem-bindu: #e8e0d4;
      }
    }
  </style>
  <rect width="100" height="100" rx="22" fill="var(--emblem-bg)"/>
  <rect x="1.5" y="1.5" width="97" height="97" rx="20.5" fill="none" stroke="var(--emblem-border)" stroke-width="1.5"/>
  <rect x="20" y="20" width="60" height="60" rx="8" transform="rotate(45 50 50)" stroke="var(--emblem-frame)" stroke-width="2" stroke-dasharray="3.5 3.5" fill="none"/>
  <circle cx="50" cy="8" r="2.5" fill="var(--emblem-j)"/>
  <circle cx="50" cy="92" r="2.5" fill="var(--emblem-j)"/>
  <circle cx="8" cy="50" r="2.5" fill="var(--emblem-j)"/>
  <circle cx="92" cy="50" r="2.5" fill="var(--emblem-j)"/>
  <path d="M 26 26 H 38 V 56 C 38 68, 30 74, 20 66" stroke="var(--emblem-j)" stroke-width="6.5" stroke-linecap="round" stroke-linejoin="round" fill="none"/>
  <path d="M 72 28 C 72 19, 56 19, 46 26 C 39 31, 45 41, 56 45 C 66 49, 74 57, 70 69 C 66 79, 50 80, 38 72" stroke="var(--emblem-s)" stroke-width="6.5" stroke-linecap="round" stroke-linejoin="round" fill="none"/>
  <circle cx="50" cy="50" r="4.5" fill="var(--emblem-bindu)"/>
</svg>
