<svg version="1.1" id="logo" xmlns:x="ns_extend;" xmlns:i="ns_ai;" xmlns:graph="ns_graphs;" xmlns="http://www.w3.org/2000/svg" xmlns:xlink="http://www.w3.org/1999/xlink" x="0px" y="0px" viewBox="0 0 64.8 100" style="enable-background:new 0 0 64.8 100;" xml:space="preserve">
 <style type="text/css">
  .st0{fill:#1DCAD3;}
 </style>
 <metadata>
  <sfw xmlns="ns_sfw;">
   <slices>
   </slices>
   <sliceSourceBounds bottomLeftOrigin="true" height="100" width="64.8" x="-319.8" y="85">
   </sliceSourceBounds>
  </sfw>
 </metadata>
 <g>
  <path id="Path_16" class="st0" d="M19.7,54c-3.5-0.1-6.9,0.8-9.9,2.6c-0.5,0.3-1,0.6-1.6,0.7l-0.1,0c-0.2,0.1-0.4,0.1-0.7,0.1
		l-0.2,0c-0.3,0-0.5,0.1-0.8,0.1H6.4c-0.1,0-0.1,0-0.2,0c-0.2,0-0.3,0-0.5,0c-0.1,0-0.2,0-0.3,0c-0.1,0-0.3,0-0.4-0.1
		c-0.1,0-0.2,0-0.3-0.1c-0.1,0-0.3-0.1-0.4-0.1c-0.1,0-0.2-0.1-0.3-0.1c-0.1-0.1-0.3-0.1-0.4-0.2C3.7,57,3.7,57,3.6,57
		c-0.2-0.1-0.3-0.2-0.5-0.3L3,56.6c-0.2-0.1-0.4-0.2-0.5-0.4c-0.1,0-0.1-0.1-0.1-0.1C2.2,56,2.1,55.9,2,55.8l0,0
		c-0.1-0.1-0.3-0.3-0.4-0.4c0,0,0,0-0.1-0.1c-1.3-1.5-1.8-3.6-1.4-5.5c0.2-1.1,0.8-2.1,1.6-2.9l0.1-0.1c0.1-0.1,0.3-0.3,0.4-0.4
		c0,0,0.1-0.1,0.1-0.1c0,0,0.1-0.1,0.1-0.1c0.2-0.1,0.3-0.3,0.5-0.4c0.1,0,0.1-0.1,0.2-0.1c0.2-0.1,0.4-0.2,0.6-0.3h0
		c0.5-0.2,1-0.4,1.5-0.5c0.1,0,0.2,0,0.2,0c2-0.4,3.9-1.5,5.2-3L34.5,14c2.1-2.3,3.4-5.2,3.8-8.2c0-0.2,0.1-0.5,0.1-0.7
		c0,0,0-0.1,0-0.1c0-0.1,0.1-0.3,0.1-0.4c0,0,0,0,0-0.1c0.7-2.6,3-4.4,5.7-4.5h0c0.2,0,0.5,0,0.7,0c0.1,0,0.3,0,0.4,0h0
		c0,0,0.1,0,0.1,0c0.4,0.1,0.8,0.1,1.2,0.3l0.1,0c0.2,0.1,0.3,0.1,0.5,0.2c0.1,0.1,0.2,0.1,0.3,0.2c0.1,0.1,0.2,0.1,0.2,0.1
		c0,0,0.1,0,0.1,0.1c0.2,0.1,0.3,0.2,0.4,0.3c0,0,0.1,0.1,0.1,0.1c0.2,0.1,0.4,0.3,0.6,0.5c0,0,0,0,0.1,0.1c0.1,0.1,0.3,0.3,0.4,0.4
		c0.1,0.1,0.1,0.2,0.2,0.2c0.1,0.1,0.2,0.2,0.2,0.3c0.1,0.1,0.1,0.2,0.2,0.3c0.1,0.1,0.1,0.2,0.2,0.3c0.1,0.1,0.1,0.2,0.2,0.3
		c0,0.1,0.1,0.2,0.1,0.3c0,0.1,0.1,0.2,0.1,0.3c0,0.1,0.1,0.2,0.1,0.3c0,0,0,0.1,0,0.1c0,0.1,0.1,0.2,0.1,0.3C51,5.1,51,5.2,51,5.3
		c0,0.1,0,0.2,0,0.3c0,0.1,0,0.3,0,0.4c0,0.1,0,0.2,0,0.3c0,0.1,0,0.3,0,0.4c0,0.1,0,0.2,0,0.3c0,0.1,0,0.2,0,0.4
		c0,0.1,0,0.2-0.1,0.4c0,0,0,0.1,0,0.1c0,0,0,0.1,0,0.1c-0.2,0.7-0.4,1.3-0.8,1.9L50,9.9c-0.2,0.3-0.4,0.5-0.6,0.8
		c-0.2,0.3-0.5,0.5-0.8,0.7l0,0c-1.7,1.3-3,3.1-3.6,5.1l-6.9,27.3h-5.8L39,17.4c0,0,0,0.1-0.1,0.1L15,45.5c-0.5,0.6-0.9,1.3-1.3,2
		c1.9,0.6,4,0.9,6,0.9h25.4c3.5,0,6.9-0.9,9.9-2.6c0.1-0.1,0.3-0.2,0.4-0.2l0.2-0.1c0.1-0.1,0.3-0.1,0.4-0.2
		c0.2-0.1,0.4-0.1,0.6-0.2c0.1,0,0.2-0.1,0.4-0.1s0.3-0.1,0.4-0.1c0.2,0,0.4-0.1,0.7-0.1c0.1,0,0.2,0,0.3,0c0.2,0,0.3,0,0.5,0l0.2,0
		c0.8,0.1,1.5,0.3,2.2,0.6l0,0c0,0,0.1,0.1,0.1,0.1c0.2,0.1,0.4,0.2,0.6,0.4c0.1,0.1,0.2,0.1,0.3,0.2c0.1,0.1,0.3,0.2,0.4,0.3
		c0.1,0.1,0.2,0.2,0.3,0.3c0.1,0.1,0.2,0.2,0.3,0.4c0.1,0.1,0.1,0.2,0.2,0.3c0.2,0.2,0.3,0.4,0.4,0.6c0.1,0.1,0.1,0.2,0.1,0.3
		c0.1,0.2,0.2,0.3,0.2,0.5c0,0.1,0.1,0.2,0.1,0.3c0.1,0.2,0.1,0.4,0.2,0.6c0,0,0,0.1,0,0.1c0,0,0,0,0,0c0.4,1.9-0.1,3.9-1.3,5.4
		c0,0-0.1,0.1-0.1,0.1c-0.2,0.2-0.3,0.4-0.5,0.5c-0.1,0.1-0.2,0.1-0.3,0.2c-0.2,0.2-0.5,0.4-0.7,0.5c-0.1,0-0.1,0.1-0.2,0.1
		c-0.3,0.1-0.5,0.3-0.8,0.4l-0.1,0c-0.4,0.1-0.7,0.2-1.1,0.3c-2,0.4-3.9,1.4-5.3,3L31.1,88c-1.3,1.7-2.1,3.7-2.1,5.9
		c0,0.1,0,0.1,0,0.2c0,0.2,0,0.4-0.1,0.6c0,0.1,0,0.3-0.1,0.4c0,0,0,0.1,0,0.1c-0.1,0.2-0.1,0.5-0.2,0.7c0,0.1-0.1,0.2-0.1,0.3
		c-0.1,0.2-0.2,0.4-0.3,0.6c-0.1,0.1-0.1,0.2-0.2,0.3c-0.2,0.2-0.3,0.5-0.5,0.7c0,0,0,0.1-0.1,0.1c-0.1,0.1-0.2,0.2-0.3,0.3
		c0,0-0.1,0.1-0.1,0.1c-0.1,0.1-0.3,0.3-0.4,0.4c0,0-0.1,0-0.1,0.1c-0.2,0.1-0.3,0.2-0.5,0.3L26,99.1c-0.2,0.1-0.3,0.2-0.5,0.3
		l-0.1,0.1c-0.2,0.1-0.3,0.1-0.5,0.2l-0.2,0.1c-0.1,0-0.3,0.1-0.4,0.1L24,99.9c-0.1,0-0.2,0-0.4,0.1c-0.1,0-0.2,0-0.4,0
		c-0.1,0-0.2,0-0.3,0c-0.1,0-0.3,0-0.4,0s-0.2,0-0.3,0c-0.1,0-0.3,0-0.4,0c-0.1,0-0.2,0-0.3-0.1c-0.1,0-0.2,0-0.4-0.1
		c-0.1,0-0.2-0.1-0.3-0.1c-0.1,0-0.3-0.1-0.4-0.1l-0.2-0.1c-0.2-0.1-0.3-0.1-0.5-0.2c-0.9-0.5-1.7-1.1-2.3-1.9l0,0c0,0,0,0,0-0.1
		c-0.2-0.2-0.3-0.4-0.4-0.7c-0.1-0.1-0.1-0.2-0.1-0.3c-0.1-0.2-0.2-0.3-0.2-0.5c0-0.1-0.1-0.2-0.1-0.3c-0.1-0.2-0.1-0.4-0.2-0.6
		c0-0.1,0-0.2,0-0.3c0-0.2-0.1-0.4-0.1-0.7c0-0.1,0-0.2,0-0.3c0-0.2,0-0.3,0-0.5c0-0.1,0-0.1,0-0.2l0-0.1c0-0.2,0.1-0.5,0.1-0.7
		c0,0,0-0.1,0-0.1c0.1-0.3,0.1-0.5,0.2-0.8l0.1-0.2c0.2-0.5,0.4-0.9,0.7-1.3l0.1-0.1c0.1-0.1,0.2-0.2,0.3-0.3
		c0.1-0.1,0.1-0.1,0.2-0.2c0,0,0-0.1,0.1-0.1c2.5-2.5,4.2-5.7,5-9.1l5.4-21.5h5.8l-5.8,22.8c-0.1,0.3-0.2,0.7-0.2,1l21.2-25.2
		c0.6-0.7,1.1-1.5,1.4-2.3c-2-0.6-4-0.9-6-0.9L19.7,54L19.7,54z">
  </path>
 </g>
</svg>